<svg width="690" height="328" viewBox="0 0 690 328" fill="none" xmlns="http://www.w3.org/2000/svg">
<path d="M516.266 237.891C516.266 245.254 510.298 251.222 502.928 251.222H173.253C165.883 251.222 159.909 245.254 159.909 237.891V48.2485C159.909 40.8918 165.883 34.9241 173.253 34.9241H502.928C510.298 34.9241 516.266 40.8918 516.266 48.2485V237.891Z" fill="#303838"/>
<path d="M159.915 234.16V239.622C159.915 246.031 165.889 251.222 173.259 251.222H502.934C510.304 251.222 516.271 246.031 516.271 239.622V234.16H159.915Z" fill="#252B2B"/>
<path fill-rule="evenodd" clip-rule="evenodd" d="M557.18 238.757H119V251.746C124.202 259.485 136.851 265.011 143.343 265.011H532.92C539.365 265.011 551.931 259.538 557.174 251.852V238.751L557.18 238.757Z" fill="#F3F2F2"/>
<path fill-rule="evenodd" clip-rule="evenodd" d="M119.236 252.14C124.597 259.673 136.927 265.011 143.307 265.011H532.885C539.253 265.011 551.584 259.673 556.945 252.14H119.236Z" fill="#BBBCBB"/>
<path d="M301.17 239.086C301.576 244.095 305.777 248.05 310.902 248.05H365.272C370.404 248.05 374.598 244.101 375.011 239.086H301.175H301.17Z" fill="#BBBCBB"/>
<path d="M197.955 48.7546H181.029V222.113H495.145V198.46L197.955 48.7546Z" fill="#F3F2F2"/>
<path d="M495.145 48.7546H197.955L495.145 198.46V48.7546Z" fill="white"/>
<path fill-rule="evenodd" clip-rule="evenodd" d="M481.042 223.255H195.133V7.75757H339.192H481.042V223.255Z" fill="#43A4DF"/>
<path d="M474.096 198.413H202.191V216.675H474.096V198.413Z" fill="#D3D1C8"/>
<path d="M359.723 0.73628C350.273 2.66667 342.391 7.27488 337.79 13.3662V198.313L338.349 208.736C340.182 205.722 342.538 199.967 351.946 198.313H473.789L474.396 0.63623L359.723 0.742162V0.73628Z" fill="#F9F9F9"/>
<path d="M316.457 0.73628C325.907 2.66667 333.79 7.27488 338.391 13.3662V208.612C335.121 204.286 330.196 200.714 324.234 198.313H202.391L201.778 0.63623L316.452 0.742162L316.457 0.73628Z" fill="white"/>
<path d="M316.858 0.824463V198.307C316.858 198.307 328.752 197.206 338.22 208.865L338.391 13.3602C333.854 7.35718 326.125 2.79605 316.858 0.824463Z" fill="#E3E2DF"/>
<path d="M293.806 29.5566H245.639V31.9461H293.806V29.5566Z" fill="#C9C8C9"/>
<path d="M310.219 38.2612H237.727V40.6507H310.219V38.2612Z" fill="#C9C8C9"/>
<path d="M310.219 42.4575H229.231V44.8528H310.219V42.4575Z" fill="#C9C8C9"/>
<path d="M310.219 46.6477H229.231V49.043H310.219V46.6477Z" fill="#C9C8C9"/>
<path d="M310.219 50.8381H229.231V53.2335H310.219V50.8381Z" fill="#C9C8C9"/>
<path d="M310.219 55.0344H229.231V57.4297H310.219V55.0344Z" fill="#C9C8C9"/>
<path d="M310.219 59.2246H229.231V61.6199H310.219V59.2246Z" fill="#C9C8C9"/>
<path d="M310.219 63.415H229.231V65.8104H310.219V63.415Z" fill="#C9C8C9"/>
<path d="M310.219 67.6055H229.231V70.0067H310.219V67.6055Z" fill="#C9C8C9"/>
<path d="M269.722 71.8018H229.231V74.1971H269.722V71.8018Z" fill="#C9C8C9"/>
<path d="M310.219 76.2451H237.727V78.6405H310.219V76.2451Z" fill="#C9C8C9"/>
<path d="M310.219 80.4414H229.231V82.8367H310.219V80.4414Z" fill="#C9C8C9"/>
<path d="M310.219 84.6316H229.231V87.021H310.219V84.6316Z" fill="#C9C8C9"/>
<path d="M310.219 88.8279H229.231V91.2232H310.219V88.8279Z" fill="#C9C8C9"/>
<path d="M310.219 93.0183H229.231V95.4078H310.219V93.0183Z" fill="#C9C8C9"/>
<path d="M310.219 97.2087H229.231V99.6041H310.219V97.2087Z" fill="#C9C8C9"/>
<path d="M310.219 101.405H229.231V103.8H310.219V101.405Z" fill="#C9C8C9"/>
<path d="M310.219 105.589H229.231V107.985H310.219V105.589Z" fill="#C9C8C9"/>
<path d="M296.221 109.792H229.231V112.187H296.221V109.792Z" fill="#C9C8C9"/>
<path d="M310.219 114.229H237.727V116.624H310.219V114.229Z" fill="#C9C8C9"/>
<path d="M310.219 118.425H229.231V120.821H310.219V118.425Z" fill="#C9C8C9"/>
<path d="M310.219 122.616H229.231V125.011H310.219V122.616Z" fill="#C9C8C9"/>
<path d="M310.219 126.806H229.231V129.201H310.219V126.806Z" fill="#C9C8C9"/>
<path d="M310.219 131.008H229.231V133.397H310.219V131.008Z" fill="#C9C8C9"/>
<path d="M310.219 135.198H229.231V137.594H310.219V135.198Z" fill="#C9C8C9"/>
<path d="M310.219 143.579H229.231V145.98H310.219V143.579Z" fill="#C9C8C9"/>
<path fill-rule="evenodd" clip-rule="evenodd" d="M229.231 139.147L310.219 139.142V141.543H229.231V139.147Z" fill="#C9C8C9"/>
<path d="M310.219 143.338H229.231V145.733H310.219V143.338Z" fill="#C9C8C9"/>
<path d="M310.219 147.534H229.231V149.93H310.219V147.534Z" fill="#C9C8C9"/>
<path d="M310.219 151.724H229.231V154.114H310.219V151.724Z" fill="#C9C8C9"/>
<path d="M310.219 155.921H229.231V158.316H310.219V155.921Z" fill="#C9C8C9"/>
<path d="M310.219 160.105H229.231V162.501H310.219V160.105Z" fill="#C9C8C9"/>
<path d="M310.219 164.302H229.231V166.697H310.219V164.302Z" fill="#C9C8C9"/>
<path d="M430.542 29.5566H382.381V31.9461H430.542V29.5566Z" fill="#C9C8C9"/>
<path d="M446.955 38.2612H374.463V40.6507H446.955V38.2612Z" fill="#C9C8C9"/>
<path d="M446.955 42.4575H365.962V44.8528H446.955V42.4575Z" fill="#C9C8C9"/>
<path d="M446.955 46.6477H365.962V49.043H446.955V46.6477Z" fill="#C9C8C9"/>
<path d="M446.955 50.8381H365.962V53.2335H446.955V50.8381Z" fill="#C9C8C9"/>
<path d="M446.955 55.0344H365.962V57.4297H446.955V55.0344Z" fill="#C9C8C9"/>
<path d="M446.955 59.2246H365.962V61.6199H446.955V59.2246Z" fill="#C9C8C9"/>
<path d="M446.955 63.415H365.962V65.8104H446.955V63.415Z" fill="#C9C8C9"/>
<path d="M446.955 67.6055H365.962V70.0067H446.955V67.6055Z" fill="#C9C8C9"/>
<path d="M406.458 71.8018H365.962V74.1971H406.458V71.8018Z" fill="#C9C8C9"/>
<path d="M446.955 76.2451H374.463V78.6405H446.955V76.2451Z" fill="#C9C8C9"/>
<path d="M446.955 80.4414H365.962V82.8367H446.955V80.4414Z" fill="#C9C8C9"/>
<path d="M446.955 84.6316H365.962V87.021H446.955V84.6316Z" fill="#C9C8C9"/>
<path d="M446.955 88.8279H365.962V91.2232H446.955V88.8279Z" fill="#C9C8C9"/>
<path d="M446.955 93.0183H365.962V95.4078H446.955V93.0183Z" fill="#C9C8C9"/>
<path d="M446.955 97.2087H365.962V99.6041H446.955V97.2087Z" fill="#C9C8C9"/>
<path d="M446.955 101.405H365.962V103.8H446.955V101.405Z" fill="#C9C8C9"/>
<path d="M446.955 105.589H365.962V107.985H446.955V105.589Z" fill="#C9C8C9"/>
<path d="M432.957 109.792H365.962V112.187H432.957V109.792Z" fill="#C9C8C9"/>
<path d="M446.955 114.229H374.463V116.624H446.955V114.229Z" fill="#C9C8C9"/>
<path d="M446.955 118.425H365.962V120.821H446.955V118.425Z" fill="#C9C8C9"/>
<path d="M446.955 122.616H365.962V125.011H446.955V122.616Z" fill="#C9C8C9"/>
<path d="M446.955 126.806H365.962V129.201H446.955V126.806Z" fill="#C9C8C9"/>
<path d="M446.955 131.008H365.962V133.397H446.955V131.008Z" fill="#C9C8C9"/>
<path d="M446.955 135.198H365.962V137.594H446.955V135.198Z" fill="#C9C8C9"/>
<path d="M446.955 143.579H365.962V145.98H446.955V143.579Z" fill="#C9C8C9"/>
<path fill-rule="evenodd" clip-rule="evenodd" d="M365.962 139.147L446.955 139.142V141.543H365.962V139.147Z" fill="#C9C8C9"/>
<path d="M446.955 143.338H365.962V145.733H446.955V143.338Z" fill="#C9C8C9"/>
<path d="M446.955 147.534H365.962V149.93H446.955V147.534Z" fill="#C9C8C9"/>
<path d="M446.955 151.724H365.962V154.114H446.955V151.724Z" fill="#C9C8C9"/>
<path d="M446.955 155.921H365.962V158.316H446.955V155.921Z" fill="#C9C8C9"/>
<path d="M446.955 160.105H365.962V162.501H446.955V160.105Z" fill="#C9C8C9"/>
<path d="M446.955 164.302H365.962V166.697H446.955V164.302Z" fill="#C9C8C9"/>
<path d="M515.075 238.939H480.099L466.826 223.584H527.141L515.075 238.939Z" fill="#D1D2D1"/>
<path d="M482.638 223.584H466.826L480.099 238.939H482.638V223.584Z" fill="#E2E0E0"/>
<path d="M537.904 186.071L564.326 137.029C567.272 132.662 569.793 127.989 571.85 123.063C572.439 121.639 572.987 120.191 573.505 118.719C576.403 110.427 578 101.522 578 92.2472C578 47.9659 542.063 12.0654 497.737 12.0654C453.412 12.0654 417.475 47.9659 417.475 92.2472C417.475 101.528 419.071 110.427 421.97 118.719C422.482 120.191 423.03 121.639 423.625 123.063C425.676 127.989 428.203 132.656 431.143 137.029L457.565 186.071" fill="#FFD45B"/>
<path d="M497.743 12.0654C494.639 12.0654 491.575 12.2479 488.559 12.5892C528.555 17.1445 559.637 51.0675 559.637 92.2472C559.637 101.528 558.04 110.427 555.142 118.719C554.623 120.191 554.076 121.639 553.486 123.063C551.43 127.989 548.909 132.656 545.963 137.029L519.541 186.071H537.91L564.332 137.029C567.278 132.662 569.799 127.989 571.855 123.063C572.445 121.639 572.992 120.191 573.511 118.719C576.409 110.427 578.006 101.522 578.006 92.2472C578.006 47.9659 542.069 12.0654 497.743 12.0654Z" fill="#F4C95D"/>
<g style="mix-blend-mode:overlay" opacity="0.18">
<path d="M493.743 31.446C503.034 40.7271 497.219 61.5847 480.759 78.0342C464.293 94.4837 443.414 100.293 434.124 91.0055C424.833 81.7243 430.648 60.8667 447.108 44.4172C463.574 27.9677 484.453 22.1589 493.743 31.446Z" fill="#FBE9BE"/>
</g>
<path d="M522.039 186.071H474.367" stroke="black" stroke-width="5" stroke-miterlimit="10"/>
<path d="M470.373 113.481L484.052 100.799L497.737 113.481L511.417 100.799L525.114 113.481" stroke="black" stroke-width="5" stroke-miterlimit="10"/>
<path d="M483.651 186.624V146.216L538.8 100.004" stroke="black" stroke-width="5" stroke-linejoin="round"/>
<path d="M511.835 186.624V146.216L456.681 100.004" stroke="black" stroke-width="5" stroke-linejoin="round"/>
<path d="M529.597 224.632C529.662 223.632 542.758 211.225 542.758 210.207V186.113H453.359V210.207C453.359 211.225 464.823 223.632 464.888 224.632H529.597Z" fill="#F3F2F2"/>
<path d="M542.953 201.238H453.17C451.067 201.238 449.364 199.537 449.364 197.43C449.364 195.323 451.067 193.628 453.17 193.628H542.953C545.056 193.628 546.759 195.329 546.759 197.43C546.759 199.531 545.056 201.238 542.953 201.238Z" fill="#D1D2D1"/>
<path d="M482.402 193.628H453.164C451.061 193.628 449.358 195.329 449.358 197.43C449.358 199.531 451.061 201.238 453.164 201.238H482.402V193.634V193.628Z" fill="#E2E0E0"/>
<path d="M542.953 212.443H453.17C451.067 212.443 449.364 210.737 449.364 208.642C449.364 206.546 451.067 204.84 453.17 204.84H542.953C545.056 204.84 546.759 206.54 546.759 208.642C546.759 210.743 545.056 212.443 542.953 212.443Z" fill="#D1D2D1"/>
<path d="M482.402 204.84H453.164C451.061 204.84 449.358 206.54 449.358 208.642C449.358 210.743 451.061 212.443 453.164 212.443H482.402V204.834V204.84Z" fill="#E2E0E0"/>
<path d="M441.123 234.416L427.991 246.047L450.042 270.893L463.174 259.262L441.123 234.416Z" fill="#475151"/>
<path d="M441.132 234.347L428.002 245.98L435.28 254.179L448.41 242.546L441.132 234.347Z" fill="#303838"/>
<path d="M463.465 249.647L440.463 270.02L488.23 323.843L511.232 303.47L463.465 249.647Z" fill="#43A4DF"/>
<path d="M451.92 259.88L440.533 269.965L488.301 323.787L499.687 313.703L451.92 259.88Z" fill="#6664FF"/>
<path d="M511.16 303.381L488.158 323.754L491.801 327.859L514.803 307.486L511.16 303.381Z" fill="white"/>
<path d="M460.479 246.203L437.48 266.58L441.108 270.666L464.106 250.289L460.479 246.203Z" fill="white"/>
<path d="M390.299 103.7C345.448 101.011 306.89 135.151 304.198 179.962C301.505 224.773 335.687 263.281 380.543 265.976C425.405 268.666 463.951 234.519 466.638 189.708C469.33 144.897 435.155 106.39 390.299 103.7ZM443.673 228.145C419.731 260.291 374.239 266.953 342.067 243.041C309.895 219.123 303.214 173.677 327.156 141.531C351.11 109.391 396.59 102.723 428.774 126.641C460.947 150.559 467.615 196.006 443.673 228.145Z" fill="#444444"/>
<path opacity="0.26" d="M389.78 112.369C349.719 109.968 315.291 140.46 312.881 180.48C310.472 220.5 341.006 254.894 381.067 257.296C421.133 259.703 455.556 229.205 457.966 189.185C460.369 149.164 429.847 114.77 389.786 112.369H389.78Z" fill="white"/>
<g style="mix-blend-mode:multiply" opacity="0.72">
<path d="M389.78 112.369C367.382 111.027 346.744 119.967 332.482 135.11C345.69 125.382 362.262 120.044 379.918 121.103C419.985 123.504 450.507 157.898 448.104 197.919C447.043 215.563 439.756 231.353 428.509 243.288C445.264 230.959 456.622 211.561 457.966 189.185C460.369 149.164 429.847 114.771 389.786 112.369H389.78Z" fill="#E3E2DF"/>
</g>
<g style="mix-blend-mode:overlay" opacity="0.33">
<path d="M344.058 144.791C356.341 145.527 365.237 163.754 363.935 185.5C362.627 207.241 351.611 224.273 339.327 223.537C327.044 222.802 318.148 204.575 319.45 182.834C320.758 161.088 331.775 144.062 344.058 144.797V144.791Z" fill="#FBE9BE"/>
</g>
<path fill-rule="evenodd" clip-rule="evenodd" d="M625.886 136C609.317 136 595.886 149.431 595.886 166V169C595.886 175.641 598.044 181.779 601.697 186.749L590 199H625.886H627.886H659.886C676.454 199 689.886 185.569 689.886 169V166C689.886 149.431 676.454 136 659.886 136H625.886Z" fill="#8CD4FF"/>
<circle cx="624.886" cy="168" r="4" fill="white"/>
<circle cx="642.886" cy="168" r="4" fill="white"/>
<circle cx="660.886" cy="168" r="4" fill="white"/>
<path fill-rule="evenodd" clip-rule="evenodd" d="M96 5C112.569 5 126 18.4315 126 35V38C126 44.6413 123.842 50.7785 120.189 55.7487L131.886 68L96.0035 68C96.0023 68 96.0012 68 96 68H94H62C45.4315 68 32 54.5685 32 38V35C32 18.4315 45.4315 5 62 5H96Z" fill="white"/>
<path d="M52 30H71" stroke="#999999" stroke-width="6" stroke-linecap="round"/>
<path d="M52 44H96" stroke="#999999" stroke-width="6" stroke-linecap="round"/>
</svg>
